<svg id="Color" height="512" viewBox="0 0 24 24" width="512" xmlns="http://www.w3.org/2000/svg"><path d="m12 24c-6.617 0-12-5.383-12-12s5.383-12 12-12 12 5.383 12 12-5.383 12-12 12zm0-22.5c-5.79 0-10.5 4.71-10.5 10.5s4.71 10.5 10.5 10.5 10.5-4.71 10.5-10.5-4.71-10.5-10.5-10.5z" fill="#607d8b"/><g fill="#42a5f5"><path d="m15.341 15h-7.637c-.354 0-.66-.248-.733-.594l-.954-4.5c-.047-.222.007-.452.15-.628s.356-.278.583-.278h9.153l.62-2.435c.102-.402.516-.644.911-.542.402.103.645.511.542.912l-1.909 7.5c-.084.333-.383.565-.726.565z"/><path d="m10 18c-.551 0-1-.448-1-1s.449-1 1-1 1 .448 1 1-.449 1-1 1z"/><circle cx="14" cy="17" r="1"/></g><path d="m12 0c-6.617 0-12 5.383-12 12s5.383 12 12 12v-1.5c-5.79 0-10.5-4.71-10.5-10.5s4.71-10.5 10.5-10.5z" fill="#546d79"/><path d="m12 9h-5.25c-.227 0-.44.102-.583.278s-.197.406-.15.628l.954 4.5c.073.346.379.594.733.594h4.296z" fill="#3990d5"/><path d="m10 16c-.551 0-1 .448-1 1s.449 1 1 1 1-.448 1-1-.449-1-1-1z" fill="#3990d5"/></svg>